# xmcd CD database file
#
# Track frame offsets:
#	150
#	17061
#	23960
#	33775
#	43856
#	53788
#	64317
#	73462
#	85154
#	99669
#	114621
#	123824
#	137774
#	151366
#	163384
#	175402
#	190500
#	204898
#	217772
#	232116
#	245316
#	261204
#	274501
#	288255
#	302006
#	315654
#	329789
#	342988
#	351907
#
# Disc length: 4798 seconds
#
# Revision: 2
# Processed by: cddbd v1.5.2PL0 Copyright (c) Steve Scherf et al.
# Submitted via: CDex 1.51
#
DISCID=b112bc1d
DTITLE=History and Tradition of Jazz - Disc1of2
DYEAR=1900
DGENRE=Jazz
TTITLE0=Jazz1- 01 Someday My Prince Will Come - Miles Davis Sextet
TTITLE1=Jazz1- 02 Louisiana/Early In the Mornin' - Henry Ratcliff/Johnny Lee Moore
TTITLE2=Jazz1- 03 Cross Road Blues - Robert Johnson
TTITLE3=Jazz1- 04 Maple Leaf Rag - Scott Joplin
TTITLE4=Jazz1- 05 Just A Closer Walk With Thee - Preservation Hall Jazz Band
TTITLE5=Jazz1- 06 Tiger Rag - Art Tatum
TTITLE6=Jazz1- 07 Livery Stable Blues - Original Dixieland Jass Band
TTITLE7=Jazz1- 08 Dippermouth Blues - King Oliver's Creole Jazz Band
TTITLE8=Jazz1- 09 Black Bottom Stomp - Jelly Roll Morton's Red Hot Peppers
TTITLE9=Jazz1- 10 West End Blues - Louis Armstrong and His Hot Five
TTITLE10=Jazz1- 11 Weather Bird - Louis Armstrong and Earl Hines
TTITLE11=Jazz1- 12 Nobody's Sweetheart - The McKenzie-Condon Chicagoans
TTITLE12=Jazz1- 13 Singin' The Blues - Bix Beiderbecke w/Frankie Trumbauer and his Orchestra
TTITLE13=Jazz1- 14 Gimme a Pigfoot and a Bottle of Beer - Bessie Smith
TTITLE14=Jazz1- 15 Seet Sue, Just You - Paul Henderson Orchestra
TTITLE15=Jazz1- 16 Hot And Anxious - Fletcher Henderson Orchestra
TTITLE16=Jazz1- 17 Creole Love Call - Duke Ellington and His Orchestra featuring
TTITLE17=Jazz1- 18 Boogie Woogie (I May Be Wrong) - Count Basie Orchestra
TTITLE18=Jazz1- 19 King Porter Stomp - Benny Goodman Orchestra
TTITLE19=Jazz1- 20 Good Enough to Keep - Benny Goodman Sextet
TTITLE20=Jazz1- 21 Black, Brown And Biege, Part I - Duke Ellington and His Orchestra
TTITLE21=Jazz1- 22 Take The 'A' Train - Duke Ellington and His Orchestra
TTITLE22=Jazz1- 23 One O'Clock Jump - Count Basie and His Orchestra
TTITLE23=Jazz1- 24 Body and Soul - Coleman Hawkins and His Orchestra
TTITLE24=Jazz1- 25 Fine and Mellow - Billie Holiday
TTITLE25=Jazz1- 26 Manteca - Dizzy Gillespie and His Orchestra
TTITLE26=Jazz1- 27 Koko - Charlie Parker and His ReBoppers
TTITLE27=Jazz1- 28 Evidence - Thelonious Monk Quartet featuring John Coltrane
TTITLE28=Jazz1- 29 Lemon Drop - Ella Fizgerald
EXTD=
EXTT0=
EXTT1=
EXTT2=
EXTT3=
EXTT4=
EXTT5=
EXTT6=
EXTT7=
EXTT8=
EXTT9=
EXTT10=
EXTT11=
EXTT12=
EXTT13=
EXTT14=
EXTT15=
EXTT16=
EXTT17=
EXTT18=
EXTT19=
EXTT20=
EXTT21=
EXTT22=
EXTT23=
EXTT24=
EXTT25=
EXTT26=
EXTT27=
EXTT28=
PLAYORDER=
